# xmcd
#
# Track frame offsets: 
#        150
#        15428
#        32596
#        57706
#        69064
#        78755
#        104379
#
# Disc length: 1399 seconds
#
# Revision: 0
# Processed by: cddbd v1.5.2PL0 Copyright (c) Steve Scherf et al.
# Submitted via: ExactAudioCopyFreeDBPlugin 1.0
#
DISCID=49057507
DTITLE=Ruben Hoeke Bluesband - Promo
DYEAR=2004
DGENRE=Blues
TTITLE0=Can't Stand It
TTITLE1=Soul On Fire
TTITLE2=Midnight Prayer
TTITLE3=Rip This Joint
TTITLE4=In The Evening
TTITLE5=Boom Boom
TTITLE6=Tekst?
EXTD=
EXTT0=
EXTT1=
EXTT2=
EXTT3=
EXTT4=
EXTT5=
EXTT6=
PLAYORDER=
